# xmcd
#
# Track frame offsets:
#	150
#	10237
#	22532
#	39916
#	71739
#	84072
#	98455
#	113622
#	133393
#	160542
#	171251
#	184129
#	198253
#	215336
#	230559
#	243827
#	257666
#	270139
#	288789
#
# Disc length: 4045 seconds
#
# Revision: 2
# Processed by: cddbd v1.5.2PL0 Copyright (c) Steve Scherf et al.
# Submitted via: EZCDAudioConverter 2.1.7.1
#
DISCID=e30fcb13
DTITLE=Mickey and The Soul Generation - Iron Leg 1/2
DYEAR=2003
DGENRE=
TTITLE0=Iron Leg
TTITLE1=Football
TTITLE2=Up The Stairs And Around The Bend
TTITLE3=Give Everybody Some
TTITLE4=Joint Session
TTITLE5=The Whatzit
TTITLE6=Get Down Brother
TTITLE7=Mystery Girl
TTITLE8=Message From A Black Man
TTITLE9=Chocolate
TTITLE10=How Good Is Good
TTITLE11=We Got To Make A Change
TTITLE12=Soulful Sickness
TTITLE13=U.F.O. [Original Version]
TTITLE14=Hey, Brother Man
TTITLE15=Southern Fried Funk [1st Movement]
TTITLE16=Southern Fried Funk [2nd Movement]
TTITLE17=Hey, Brother Man [Demo Session]
TTITLE18=U.F.O. [Demo Session]
EXTD=
EXTT0=
EXTT1=
EXTT2=
EXTT3=
EXTT4=
EXTT5=
EXTT6=
EXTT7=
EXTT8=
EXTT9=
EXTT10=
EXTT11=
EXTT12=
EXTT13=
EXTT14=
EXTT15=
EXTT16=
EXTT17=
EXTT18=
PLAYORDER=
